<svg width="15" height="15" viewBox="0 0 15 15" fill="none" xmlns="http://www.w3.org/2000/svg"><path d="M6.11654 8.43534C6.43183 8.7401 6.43183 9.2402 6.11654 9.54495C5.81663 9.8497 5.32446 9.8497 5.02454 9.54495C3.52497 8.02119 3.52497 5.54411 5.02454 4.02035L7.74684 1.25415C9.24642 -0.269611 11.6842 -0.269611 13.1838 1.25415C14.6833 2.7779 14.6833 5.25499 13.1838 6.77875L12.0379 7.94305C12.0456 7.30229 11.9456 6.66153 11.7303 6.05203L12.0918 5.67695C12.9992 4.7627 12.9992 3.27801 12.0918 2.36375C11.192 1.44169 9.73089 1.44169 8.83115 2.36375L6.11654 5.12215C5.20911 6.0364 5.20911 7.52109 6.11654 8.43534ZM8.28515 5.12215C8.58506 4.8174 9.07723 4.8174 9.37715 5.12215C10.8767 6.64591 10.8767 9.12299 9.37715 10.6467L6.65485 13.413C5.15528 14.9367 2.71751 14.9367 1.21794 13.413C-0.281631 11.8892 -0.281631 9.41211 1.21794 7.88835L2.36377 6.72405C2.35608 7.36481 2.45605 8.00557 2.67137 8.62288L2.30994 8.99015C1.4025 9.9044 1.4025 11.3891 2.30994 12.3033C3.20968 13.2254 4.6708 13.2254 5.57054 12.3033L8.28515 9.54495C9.19258 8.6307 9.19258 7.14601 8.28515 6.23176C7.96986 5.927 7.96986 5.4269 8.28515 5.12215Z" fill="var(--color-content-quaternary,#727272)"></path></svg>