<?xml version="1.0" encoding="UTF-8"?>
<svg width="16px" height="16px" viewBox="0 0 16 16" version="1.1" xmlns="http://www.w3.org/2000/svg" xmlns:xlink="http://www.w3.org/1999/xlink">
    <!-- Generator: Sketch 42 (36781) - http://www.bohemiancoding.com/sketch -->
    <title>Facebook-16</title>
    <desc>Created with Sketch.</desc>
    <defs></defs>
    <g id="Symbols" stroke="none" stroke-width="1" fill="none" fill-rule="evenodd">
        <g id="Facebook-16" fill-rule="nonzero" fill="#FFFFFF">
            <path d="M0,1.00087166 C0,0.448105505 0.444630861,0 1.00087166,0 L14.9991283,0 C15.5518945,0 16,0.444630861 16,1.00087166 L16,14.9991283 C16,15.5518945 15.5553691,16 14.9991283,16 L1.00087166,16 C0.448105505,16 0,15.5553691 0,14.9991283 L0,1.00087166 Z M8.01978182,16 L10.3499636,16 L10.3499636,9.99505455 L12.6359273,9.99505455 L12.7389091,7.83127273 L10.3505455,7.83127273 L10.3505455,6.25338182 C10.3505455,5.6576 10.4762182,5.29803636 11.2709818,5.29803636 C12.0064,5.29803636 12.6760727,5.30327273 12.6760727,5.30327273 L12.7301818,3.28378182 C12.7301818,3.28378182 12.0686545,3.2 11.1767273,3.2 C8.97454545,3.2 8.01978182,4.53294545 8.01978182,5.98574545 L8.01978182,7.83127273 L6.4,7.83127273 L6.4,9.99505455 L8.01978182,9.99505455 L8.01978182,16 Z" id="Combined-Shape"></path>
        </g>
    </g>
</svg>