<?xml version="1.0" encoding="UTF-8"?>
<svg width="16px" height="16px" viewBox="0 0 16 16" version="1.1" xmlns="http://www.w3.org/2000/svg" xmlns:xlink="http://www.w3.org/1999/xlink">
    <!-- Generator: Sketch 42 (36781) - http://www.bohemiancoding.com/sketch -->
    <title>Twitter-16</title>
    <desc>Created with Sketch.</desc>
    <defs></defs>
    <g id="Symbols" stroke="none" stroke-width="1" fill="none" fill-rule="evenodd">
        <g id="Twitter-16" fill="#FFFFFF">
            <path d="M4.66064,15.6260577 C11.45312,15.6260577 15.16832,9.9985377 15.16832,5.1183777 C15.16832,4.9585377 15.16832,4.7994177 15.15752,4.6410177 C15.8802786,4.11823352 16.5041759,3.47093087 17,2.7294177 C16.3259929,3.02807498 15.6109971,3.22393433 14.87888,3.3104577 C15.6498157,2.84892478 16.2268089,2.12301353 16.50248,1.2678177 C15.7775534,1.69798553 14.9844652,2.00114636 14.15744,2.1642177 C13.0126996,0.946981583 11.1937179,0.649058763 9.72047548,1.43750725 C8.24723302,2.22595574 7.48611799,3.90469223 7.86392,5.5323777 C4.89456493,5.38351737 2.12802256,3.98101046 0.2528,1.6738977 C-0.727391615,3.36132191 -0.226728724,5.52003653 1.39616,6.6037377 C0.808453665,6.58631914 0.233561148,6.42777919 -0.28,6.1414977 L-0.28,6.1882977 C-0.279518944,7.94624464 0.959661071,9.46036302 2.6828,9.8084577 C2.13910611,9.95673454 1.56865802,9.97840959 1.01528,9.8718177 C1.49908251,11.3762021 2.88553368,12.4067821 4.46552,12.4364577 C3.15780923,13.4642087 1.54236285,14.0221337 -0.12088,14.0204577 C-0.41470943,14.0198936 -0.708253073,14.0021031 -1,13.9671777 C0.688857883,15.0509768 2.65393765,15.6258539 4.66064,15.6231777" id="Twitter-Logo"></path>
        </g>
    </g>
</svg>